<?xml version="1.0" encoding="iso-8859-1"?>
<!-- Generator: Adobe Illustrator 16.0.0, SVG Export Plug-In . SVG Version: 6.00 Build 0)  -->
<!DOCTYPE svg PUBLIC "-//W3C//DTD SVG 1.1//EN" "http://www.w3.org/Graphics/SVG/1.1/DTD/svg11.dtd">
<svg version="1.1" id="Capa_1" xmlns="http://www.w3.org/2000/svg" xmlns:xlink="http://www.w3.org/1999/xlink" x="0px" y="0px"
	 width="454.145px" height="454.144px" viewBox="0 0 454.145 454.144" style="enable-background:new 0 0 454.145 454.144;"
	 xml:space="preserve">
<g>
	<path d="M318.049,122.072V51.116c67.196,32.103,114.577,98.44,120.177,176.329h-60.443
		C373.4,184.443,350.835,146.892,318.049,122.072z M257.4,0h-60.654v181.956H257.4V0z M136.096,122.072V51.116
		C68.871,83.219,21.488,149.557,15.888,227.443h60.443C80.716,184.443,103.284,146.892,136.096,122.072z M76.952,257.767H15.563
		c7.463,104.926,91.391,188.914,196.344,196.377v-61.362C140.658,385.562,84.182,329.146,76.952,257.767z M377.162,257.767
		c-7.229,71.379-63.673,127.795-134.926,135.015v61.362c104.926-7.463,188.882-91.451,196.345-196.377H377.162z"/>
</g>
<g>
</g>
<g>
</g>
<g>
</g>
<g>
</g>
<g>
</g>
<g>
</g>
<g>
</g>
<g>
</g>
<g>
</g>
<g>
</g>
<g>
</g>
<g>
</g>
<g>
</g>
<g>
</g>
<g>
</g>
</svg>
